<svg width="12" height="13" stroke="current" viewBox="0 0 12 13" fill="none" xmlns="http://www.w3.org/2000/svg">
<path d="M7.66822 5.46457L6.54278 6.86466C6.09681 7.41946 5.87382 7.69686 5.58047 7.69686C5.28711 7.69686 5.06412 7.41946 4.61815 6.86465L4.32781 6.50347M9.83338 8.813C10.7252 7.18392 10.9541 5.32494 10.9991 4.14579C11.025 3.47033 10.4683 2.95325 9.79396 2.95325H9.46585C8.92777 2.95325 8.49157 2.516 8.49157 1.97663C8.49157 1.43725 8.05537 1 7.51728 1H4.64119C4.01343 1 3.50452 1.51012 3.50452 2.1394C3.50452 2.76867 2.99562 3.27879 2.36786 3.27879H2.1959C1.52331 3.27879 0.967562 3.79153 1.00147 4.46488C1.05631 5.55361 1.29764 7.23271 2.16271 8.813C2.39799 9.24282 2.71755 9.67412 3.07242 10.0851C4.17471 11.3617 4.72585 12 5.99805 12C7.27024 12 7.82138 11.3617 8.92367 10.0851C9.27854 9.67412 9.5981 9.24282 9.83338 8.813Z" stroke="current" stroke-width="1.3" stroke-linecap="round"/>
</svg>
