<svg width="18" height="15" viewBox="0 0 18 15" fill="current" xmlns="http://www.w3.org/2000/svg">
<path d="M1.63059 0.842337C1.54351 0.494073 1.1906 0.282336 0.842337 0.369411C0.494073 0.456486 0.282336 0.809398 0.369411 1.15766L1.63059 0.842337ZM4.57427 12.0891L4.96498 11.5697L4.96498 11.5697L4.57427 12.0891ZM2.51598 7.18887L1.88388 7.34037L1.88388 7.34037L2.51598 7.18887ZM4.43934 11.9827L4.02524 12.4837L4.43934 11.9827ZM16.7645 7.55697L17.3966 7.70847L16.7645 7.55697ZM15.1674 11.7682L14.7121 11.3044L14.7121 11.3044L15.1674 11.7682ZM14.5304 12.2706L14.1855 11.7197L14.5304 12.2706ZM16.7067 4.56702L17.1528 4.09429L17.1528 4.09429L16.7067 4.56702ZM16.978 4.91103L17.5417 4.58737L16.978 4.91103ZM10.7502 7.10007C10.3912 7.10007 10.1002 7.39108 10.1002 7.75007C10.1002 8.10905 10.3912 8.40007 10.7502 8.40007L10.7502 7.10007ZM16.7183 7.75007L17.3503 7.90169L16.7183 7.75007ZM16.1284 10.0001L15.5093 9.80225L15.5093 9.80225L16.1284 10.0001ZM1.78956 4.80793H14.0839V3.50793H1.78956V4.80793ZM10.0629 12.1922H9.68438V13.4922H10.0629V12.1922ZM3.14808 7.03738L2.42166 4.00643L1.15746 4.30942L1.88388 7.34037L3.14808 7.03738ZM2.42015 4.00026L1.63059 0.842337L0.369411 1.15766L1.15897 4.31559L2.42015 4.00026ZM9.68438 12.1922C8.29941 12.1922 7.31642 12.1912 6.55262 12.1024C5.80528 12.0156 5.33911 11.8511 4.96498 11.5697L4.18356 12.6086C4.81068 13.0803 5.52996 13.2923 6.40254 13.3937C7.25868 13.4932 8.33011 13.4922 9.68438 13.4922V12.1922ZM1.88388 7.34037C2.19952 8.65734 2.44825 9.69949 2.74455 10.5089C3.04654 11.3338 3.42038 11.9838 4.02524 12.4837L4.85344 11.4817C4.49259 11.1835 4.22396 10.7685 3.96531 10.062C3.70097 9.33989 3.47088 8.3842 3.14808 7.03738L1.88388 7.34037ZM4.96498 11.5697C4.92713 11.5412 4.88994 11.5119 4.85344 11.4817L4.02524 12.4837C4.07705 12.5266 4.12984 12.5682 4.18356 12.6086L4.96498 11.5697ZM10.0629 13.4922C11.2346 13.4922 12.1616 13.493 12.9084 13.4175C13.6682 13.3406 14.3023 13.1803 14.8754 12.8215L14.1855 11.7197C13.8456 11.9325 13.4308 12.058 12.7776 12.1241C12.1112 12.1915 11.261 12.1922 10.0629 12.1922V13.4922ZM14.7121 11.3044C14.5521 11.4615 14.3755 11.6007 14.1855 11.7197L14.8754 12.8215C15.1451 12.6527 15.3957 12.455 15.6228 12.2321L14.7121 11.3044ZM14.0839 4.80793C14.8305 4.80793 15.3309 4.80907 15.7014 4.85428C16.0611 4.89817 16.1901 4.9732 16.2606 5.03975L17.1528 4.09429C16.7899 3.75174 16.3372 3.62223 15.8588 3.56385C15.3911 3.50678 14.7968 3.50793 14.0839 3.50793V4.80793ZM17.3966 7.70847C17.5628 7.01519 17.7024 6.43749 17.7559 5.96939C17.8107 5.49055 17.7902 5.02018 17.5417 4.58737L16.4143 5.23469C16.4626 5.31877 16.5055 5.46169 16.4644 5.82176C16.422 6.19256 16.3065 6.67939 16.1324 7.40548L17.3966 7.70847ZM16.2606 5.03975C16.3211 5.09685 16.3729 5.16253 16.4143 5.23469L17.5417 4.58737C17.4369 4.40486 17.3059 4.23873 17.1528 4.09429L16.2606 5.03975ZM16.7183 7.10007L10.7502 7.10007L10.7502 8.40007L16.7183 8.40007L16.7183 7.10007ZM16.1324 7.40548C16.1168 7.47077 16.1014 7.53507 16.0862 7.59845L17.3503 7.90169C17.3656 7.83817 17.381 7.77374 17.3966 7.70847L16.1324 7.40548ZM16.0862 7.59845C15.8628 8.52984 15.6899 9.23713 15.5093 9.80225L16.7476 10.1979C16.9457 9.57808 17.1298 8.82082 17.3503 7.90169L16.0862 7.59845ZM15.5093 9.80225C15.2668 10.561 15.0319 10.9904 14.7121 11.3044L15.6228 12.2321C16.1616 11.7031 16.4781 11.0414 16.7476 10.1979L15.5093 9.80225Z" fill="current"/>
<path d="M8.10533 14.2104C8.10533 14.6464 7.75187 14.9999 7.31585 14.9999C6.87983 14.9999 6.52637 14.6464 6.52637 14.2104C6.52637 13.7744 6.87983 13.4209 7.31585 13.4209C7.75187 13.4209 8.10533 13.7744 8.10533 14.2104Z" fill="current"/>
<path d="M12.8422 14.2104C12.8422 14.6464 12.4888 14.9999 12.0527 14.9999C11.6167 14.9999 11.2633 14.6464 11.2633 14.2104C11.2633 13.7744 11.6167 13.4209 12.0527 13.4209C12.4888 13.4209 12.8422 13.7744 12.8422 14.2104Z" fill="current"/>
</svg>
