<svg width="18" height="17" stroke="current" viewBox="0 0 18 17" fill="none" xmlns="http://www.w3.org/2000/svg">
<path d="M1 3.99951C1 3.06763 1 2.60169 1.15224 2.23414C1.35523 1.74409 1.74458 1.35474 2.23463 1.15175C2.60218 0.999512 3.06812 0.999512 4 0.999512C4.93188 0.999512 5.39782 0.999512 5.76537 1.15175C6.25542 1.35474 6.64477 1.74409 6.84776 2.23414C7 2.60169 7 3.06763 7 3.99951C7 4.93139 7 5.39734 6.84776 5.76488C6.64477 6.25493 6.25542 6.64428 5.76537 6.84727C5.39782 6.99951 4.93188 6.99951 4 6.99951C3.06812 6.99951 2.60218 6.99951 2.23463 6.84727C1.74458 6.64428 1.35523 6.25493 1.15224 5.76488C1 5.39734 1 4.93139 1 3.99951Z" stroke="current" stroke-width="1.3"/>
<path d="M1 12.9995C1 12.0676 1 11.6017 1.15224 11.2341C1.35523 10.7441 1.74458 10.3547 2.23463 10.1518C2.60218 9.99951 3.06812 9.99951 4 9.99951C4.93188 9.99951 5.39782 9.99951 5.76537 10.1518C6.25542 10.3547 6.64477 10.7441 6.84776 11.2341C7 11.6017 7 12.0676 7 12.9995C7 13.9314 7 14.3973 6.84776 14.7649C6.64477 15.2549 6.25542 15.6443 5.76537 15.8473C5.39782 15.9995 4.93188 15.9995 4 15.9995C3.06812 15.9995 2.60218 15.9995 2.23463 15.8473C1.74458 15.6443 1.35523 15.2549 1.15224 14.7649C1 14.3973 1 13.9314 1 12.9995Z" stroke="current" stroke-width="1.3"/>
<path d="M10 12.9995C10 12.0676 10 11.6017 10.1522 11.2341C10.3552 10.7441 10.7446 10.3547 11.2346 10.1518C11.6022 9.99951 12.0681 9.99951 13 9.99951C13.9319 9.99951 14.3978 9.99951 14.7654 10.1518C15.2554 10.3547 15.6448 10.7441 15.8478 11.2341C16 11.6017 16 12.0676 16 12.9995C16 13.9314 16 14.3973 15.8478 14.7649C15.6448 15.2549 15.2554 15.6443 14.7654 15.8473C14.3978 15.9995 13.9319 15.9995 13 15.9995C12.0681 15.9995 11.6022 15.9995 11.2346 15.8473C10.7446 15.6443 10.3552 15.2549 10.1522 14.7649C10 14.3973 10 13.9314 10 12.9995Z" stroke="current" stroke-width="1.3"/>
<path d="M11.1213 6.364C10.4624 5.70506 10.1329 5.37558 9.98067 5.00804C9.77768 4.51799 9.77768 3.96736 9.98067 3.47731C10.1329 3.10977 10.4624 2.7803 11.1213 2.12136C11.7803 1.46241 12.1097 1.13294 12.4773 0.980703C12.9673 0.777716 13.518 0.777715 14.008 0.980703C14.3755 1.13294 14.705 1.46241 15.364 2.12136C16.0229 2.7803 16.3524 3.10977 16.5046 3.47731C16.7076 3.96737 16.7076 4.51799 16.5046 5.00804C16.3524 5.37559 16.0229 5.70506 15.364 6.364C14.705 7.02294 14.3755 7.35241 14.008 7.50465C13.518 7.70764 12.9673 7.70764 12.4773 7.50465C12.1097 7.35241 11.7803 7.02294 11.1213 6.364Z" stroke="current" stroke-width="1.3"/>
</svg>
