<svg width="12" height="12" stroke="current" viewBox="0 0 12 12" fill="none" xmlns="http://www.w3.org/2000/svg">
<path d="M1.97939 1.36813C2.01868 1.32884 2.03833 1.30919 2.05564 1.29329C2.48122 0.902237 3.13538 0.902237 3.56096 1.29329C3.57827 1.30919 3.59791 1.32884 3.63721 1.36813L4.44826 2.17919C4.89436 2.62529 5.02195 3.29898 4.76985 3.87731C4.51776 4.45564 4.64535 5.12934 5.09145 5.57544L6.42456 6.90855C6.87066 7.35465 7.54436 7.48224 8.12269 7.23015C8.70102 6.97805 9.37471 7.10564 9.82082 7.55174L10.6319 8.36279C10.6712 8.40209 10.6908 8.42173 10.7067 8.43904C11.0978 8.86462 11.0978 9.51878 10.7067 9.94436C10.6908 9.96167 10.6712 9.98132 10.6319 10.0206L10.1389 10.5136C9.73742 10.9151 9.15867 11.0836 8.60444 10.9604C4.82805 10.1212 1.87877 7.17195 1.03957 3.39556C0.916411 2.84133 1.08494 2.26258 1.4864 1.86112L1.97939 1.36813Z" stroke="current" stroke-width="1.3"/>
</svg>
