<svg width="15" height="15" viewBox="0 0 15 15" fill="current" xmlns="http://www.w3.org/2000/svg">
<path d="M11.9835 11.0643C11.7297 10.8104 11.3181 10.8104 11.0643 11.0643C10.8104 11.3181 10.8104 11.7297 11.0642 11.9835L11.9835 11.0643ZM13.5404 14.4597C13.7942 14.7135 14.2058 14.7135 14.4596 14.4597C14.7135 14.2058 14.7135 13.7943 14.4596 13.5404L13.5404 14.4597ZM11.0642 11.9835L13.5404 14.4597L14.4596 13.5404L11.9835 11.0643L11.0642 11.9835ZM6.57144 11.4929C3.8534 11.4929 1.65 9.28947 1.65 6.57144H0.35C0.35 10.0074 3.13543 12.7929 6.57144 12.7929V11.4929ZM11.4929 6.57144C11.4929 9.28947 9.28947 11.4929 6.57144 11.4929V12.7929C10.0074 12.7929 12.7929 10.0074 12.7929 6.57144H11.4929ZM6.57144 1.65C9.28947 1.65 11.4929 3.8534 11.4929 6.57144H12.7929C12.7929 3.13543 10.0074 0.35 6.57144 0.35V1.65ZM6.57144 0.35C3.13543 0.35 0.35 3.13543 0.35 6.57144H1.65C1.65 3.8534 3.8534 1.65 6.57144 1.65V0.35Z" fill="current"/>
</svg>
